/* XPM */
static char *_db60c7d51ae4ba7db55c3a674a0f9dcGcOa0mRBr1ZFCzo4[] = {
/* columns rows colors chars-per-pixel */
"64 64 244 2 ",
"   c None",
".  c #020101",
"X  c #080505",
"o  c #170606",
"O  c #191515",
"+  c #260607",
"@  c #3C0808",
"#  c #251818",
"$  c #381919",
"%  c #32221D",
"&  c #2A1F21",
"*  c #292422",
"=  c #3B2D2B",
"-  c #362725",
";  c #3B342D",
":  c #373434",
">  c #2B3030",
",  c #47090A",
"<  c #560B0B",
"1  c #481919",
"2  c #5B1312",
"3  c #581918",
"4  c #540E11",
"5  c #640C0C",
"6  c #770909",
"7  c #631414",
"8  c #6A1412",
"9  c #671C19",
"0  c #741412",
"q  c #7B1513",
"w  c #791B19",
"e  c #6E110F",
"r  c #45221D",
"t  c #56231D",
"y  c #68221E",
"u  c #7E231D",
"i  c #482926",
"p  c #582A27",
"a  c #49332D",
"s  c #59332C",
"d  c #463837",
"f  c #573935",
"g  c #442F30",
"h  c #682B25",
"j  c #782924",
"k  c #6D342C",
"l  c #63352F",
"z  c #74352D",
"x  c #7B352D",
"c  c #79382F",
"v  c #693A35",
"b  c #793932",
"n  c #5D453B",
"m  c #544330",
"M  c #6A443A",
"N  c #79443A",
"B  c #6A523D",
"V  c #564646",
"C  c #5C5653",
"Z  c #544E47",
"A  c #674A4A",
"S  c #754947",
"D  c #665757",
"F  c #6E574D",
"G  c #786757",
"H  c #706754",
"J  c #786667",
"K  c #797777",
"L  c #6C6765",
"P  c #5C6060",
"I  c #841513",
"U  c #8B1512",
"Y  c #841D1A",
"T  c #891A17",
"R  c #941613",
"E  c #9A1513",
"W  c #9D1915",
"Q  c #971B18",
"!  c #890E0E",
"~  c #A41413",
"^  c #A31915",
"/  c #AC1E1A",
"(  c #AA1916",
")  c #B51A15",
"_  c #BA1D1A",
"`  c #B71A17",
"'  c #AB0E0C",
"]  c #88221D",
"[  c #98211D",
"{  c #BB241E",
"}  c #A7231D",
"|  c #862823",
" . c #962824",
".. c #84352D",
"X. c #8C362E",
"o. c #88382F",
"O. c #94352E",
"+. c #94382F",
"@. c #9B372E",
"#. c #8C3A31",
"$. c #863B32",
"%. c #953A31",
"&. c #9B3B32",
"*. c #943B35",
"=. c #A92A25",
"-. c #B62823",
";. c #A6352C",
":. c #A2392F",
">. c #AB352C",
",. c #B5372E",
"<. c #A53A32",
"1. c #AC3B32",
"2. c #B33C33",
"3. c #BB3C34",
"4. c #B63431",
"5. c #C51C17",
"6. c #D61E1A",
"7. c #CB221D",
"8. c #D7221D",
"9. c #C72924",
"0. c #D82A26",
"q. c #CA332C",
"w. c #DB342D",
"e. c #C33D34",
"r. c #CB3E35",
"t. c #CC3C35",
"y. c #D43C34",
"u. c #EA2B24",
"i. c #E33932",
"p. c #EE312C",
"a. c #EA1B17",
"s. c #894B3B",
"d. c #A6453A",
"f. c #BA4339",
"g. c #CB423A",
"h. c #C74238",
"j. c #D6433B",
"k. c #E7443A",
"l. c #F3463C",
"z. c #874B45",
"x. c #9B4C47",
"c. c #8A5849",
"v. c #955546",
"b. c #895756",
"n. c #A94B41",
"m. c #B84E44",
"M. c #AB544A",
"N. c #B95546",
"B. c #AC5D57",
"V. c #BB5953",
"C. c #886A59",
"Z. c #916D56",
"A. c #AC7B5A",
"S. c #AB7053",
"D. c #847676",
"F. c #987876",
"G. c #8D6D67",
"H. c #AE7169",
"J. c #D74B41",
"K. c #C7544C",
"L. c #E74A42",
"P. c #EC5A51",
"I. c #CE695C",
"U. c #C86E67",
"Y. c #D0736D",
"T. c #AF8351",
"R. c #9CA05C",
"E. c #B4AD5C",
"W. c #978561",
"Q. c #938B70",
"!. c #BB986D",
"~. c #B38D73",
"^. c #A9A66B",
"/. c #BBB765",
"(. c #B7A677",
"). c #B3B076",
"_. c #C49B5F",
"`. c #D19C6F",
"'. c #E68866",
"]. c #EE9A76",
"[. c #C6B968",
"{. c #C8BC76",
"}. c #D4B979",
"|. c #CDAA71",
" X c #F9A77F",
".X c #BFCA7D",
"XX c #D2C55E",
"oX c #C6C26D",
"OX c #D5CA68",
"+X c #C9C577",
"@X c #D4CD7C",
"#X c #D7C674",
"$X c #D9D57A",
"%X c #D1D276",
"&X c #E4DA7D",
"*X c #E2D577",
"=X c #E2D177",
"-X c #878A8A",
";X c #988986",
":X c #989595",
">X c #AF9090",
",X c #B8A889",
"<X c #B9B683",
"1X c #A5A6A6",
"2X c #B9A7A7",
"3X c #B9B4B4",
"4X c #C8B887",
"5X c #D1B28A",
"6X c #EEB788",
"7X c #C9B0B1",
"8X c #CA9393",
"9X c #CCC888",
"0X c #D7C887",
"qX c #DBD38D",
"wX c #D8D787",
"eX c #C9C797",
"rX c #D5CB97",
"tX c #D9D697",
"yX c #CFD194",
"uX c #E4D985",
"iX c #E4C993",
"pX c #E3DC9A",
"aX c #E7C787",
"sX c #ECE288",
"dX c #E9E499",
"fX c #F7E891",
"gX c #DBD9A5",
"hX c #C5C6A4",
"jX c #E4DCA4",
"kX c #EDD2A2",
"lX c #E9E5A6",
"zX c #F2E9A7",
"xX c #DCE295",
"cX c #CDC8C8",
"vX c #D7D6D5",
"bX c #DDCCCB",
"nX c #E5D3D3",
"mX c #E9E7E7",
"MX c #F3EEEE",
"NX c #F6E4E5",
"BX c #F3F3F3",
"VX c #FFFFFF",
"CX c #FAF6F6",
"ZX c #EBE0DE",
/* pixels */
"                                                                                                                                ",
"                                                              .XqX                                                              ",
"                                                            dX  5XqX                                                            ",
"                                                            dX-XS #X                                                            ",
"                                                              X + b.lX                                                          ",
"                                                          pXn O 1 1 gX                                                          ",
"                                                          kXX N s.o ~.lX                                                        ",
"                                                        tXG.X x.M.# p jX                                                        ",
"                                                          # $ s.K.s o ,XpX                                                      ",
"                                                      pXQ.o w [ 2.d.3 i sX                                                      ",
"                                                        ; p X.[ g.d.h.@ <XwX                                                    ",
"                                                    dX,Xo 9 -.Y w.2.h., M zX                                                    ",
"                                                      M $ 0 / w 0.{ q.] , eX@X                                                  ",
"                                                  dXiX@ 0 2 ) q ) Y { k.5 z.wX                                                  ",
"                                                  dXs.@ Q 0 ) 8 ( I 7.u.w < aX+X                                                ",
"                                                dXgXt 7 U ) R 8 [ U { { >.5 B.xX                                                ",
"                                                  Z.1 ! q ) 7 q U w } } w.e < zX[.                                              ",
"                                                dXs 9 q I ( W e W Y T [ =.,.5 !.$X                                              ",
"                                                ^.* q I ) ~ R 2 R ] f.f.d.j.y i zX/.                                            ",
"                                              lXB 3 < U ~ R U 7 ] x M.N.K.d.j.+ 4XOX                                            ",
"                                      eX).R.  T.= 4 8 e q q ^ 7 ^ I 8.9.B.d.d.z - fX/.<XeX                                      ",
"                            eX4X^./.oX@XpX5XW.= 1 < U 0 T W 0 0 R 0 U T ~ 8.f.s.+ c.iXzXlXtXqX9X^.R.^.^.<XhX                    ",
"                    yX%X@XwX0X4X|.W.H B a > - 2 4  .U T I W q U 0 0 q I Q { f.s.h.# = m F C.H.Q.,X4X4X4XrX+X@X+X/./.9X9X        ",
"          pX9X{.[.(.W.Z.S a - $ 1 r } 3 / q ~ I ^ 0 0 0 I ` E e R 0 1.;. .E / M.N j. .-.] ..u p u 1 1 i - d Z L G.Q.Q.).E.E.qX  ",
"  eX9X^.H m m a ; % % t $ 0 ( q Q _ E 6.Y 5.T U q I ^ I U W q T ' B.C # A K.! / a.d.J._ k.9.-.l.) y.i.' 9.) T y t i i = s 5XwX  ",
"  &XrX% O * % 1 , 2 < ! ) 0 0 5._ R ` q _ T / R I T ' 6 j 3.w =.x.C K Q.. J 8Xb.S I.;.t.-.0.i.9.L.7.9.p.6.E ` a.5.I 2 v.H.tX    ",
"    uX4XC i 2 4 2 0 U e 5 R 5.I E 7.~ U U q I R ) 7.m.B.S d A S K mXVXVXO . X O :XO I.~ 9.{ w.i.5.p.9.~ 7.u.8.U 2 3 N U.rX      ",
"      sX).C - @ $ , 5 ^ ) I ] ( ( T E / 0 6 [ x.H.b d & 1XV C CXVXVXVXVXf BXCXVXVX$ g V.E 7.7.9.0.) 0.u.0.[ T w 2 s.I.4XpX      ",
"        sX(.L = i 2 5 q U U h { } R q I I s.b.O . i P nXVXNXA VXVXVXVXVX2XCXVXVXVXJ . V.U I -._ 0.i.y.-.=.-._ ~ ..I.5XgX        ",
"          sX|.C m @ , 5 Y  .$.@.` ) Q 6 Y.g 1X3Xo VXVXVXVXVXNXVXVXVXVXVXVXZXMXVXVXD . b.q e { q.t.q.0.p.p.0.=.8 J.aXyX          ",
"            fX,XG a 4 4 4 I [ } } [ ] @.& cXVXVX7XVXVXVXVXVXnXF.VXVXVXVXVXC MXVXVXnX7Xp  .I =.q.i.k.J.j.f.&.h t.6X@X            ",
"              *X9XH d 1 3 j ] [ } } | ;.d VXVXVXBXbXVXVXVXVXcXD.VXVXVXVXcXJ VXVXVXCXCX7 Y I =.3.g.g.r.t.-.8 / 6X%X              ",
"                &XaXC.s , 7 T / -.9.m.A 1XVXVXCXVXD MXVXVXVX3X2XVXVXVXVXK :XVXVXVXVXCXo ,._ ;.q.j.j.g.f.O.5.6X+X                ",
"                  *X9XG a 3 | | <.>.B.* bXVXVXVXVXK mXVXVXVXF.3XVXVXVXVXJ vXVXVXVXVXmX. 4.-.=.e.r.1.d.j ! ].$X                  ",
"                    uXiXC.a i O.<.4.S D Q.VXVXVXVX-XCXVXVXVXS vXVXVXVXVXA BXVXVXVXVXcXo Q -.;.3.r.3.#.E ].$X                    ",
"                      =X0XG.n 3 X.<.S V ;XVXVXVXVXD.BXVXVXVXf VXVXVXVXVXA MXVXVXVXCX:Xd  .-.O.<.2.#.j '.$X                      ",
"                        uXuXZ.f p @.n.V # VXVXVXVXJ VXVXVXNXv VXVXVXVXVXV MXVXVXVXVXG i [ -.O.&.z 6 ].wX                        ",
"                          uXqXH.f h *.H.. mXVXVXVXV mXVXVXVXi VXVXVXVXVXA VXVXVXVXVXi H._ ^ x z 5 Y.yXlX                        ",
"                            uXqXM.k j d.v ;XVXVXVX; mXVXVXVXg :XVXVXVXVXD D.V g d * J : g b.z + K.dXdX                          ",
"                              sXiXd.- ..H.A VXVXVXV F.MXVXVXNXo J 1X3X:XX X : . . J VXVXg G.$ ..fXuX                            ",
"                                =X!.- z M.= 2X2X-X# . * : : d . O C . # 3XmXVXvX1XZ 3XVX> S - `.wX                              ",
"                                OXZ.- z O.H.V O * d v F.G . A 1XVXVX# MXVXVXVXVXVXVXVXnXO G.i ~.wX                              ",
"                                OXC a ..1.1.n.n.d.m.| B.Y.V.F.A :XmX& MXVXVXVXVXVXVXVX-XA $.i A.$X                              ",
"                                OXm a c 2.>.<.4.1.<.f.O.;.;.4.Y.k i O VXVXVXVXVXVXVXVX: ~...p v.uX                              ",
"                              tX4X; f l 2.2.1.2.1.3.3.&.1.<.O.;.y.I.V > :XcXvXBXVXVXZX. f.k s k &XgX                            ",
"                              wX|.= M v 2.1.<.*.&.*.%.$.o.z 2.3.@.L.K.a + X O o V K * K m.<.f p =X9X                            ",
"                              $XA.- v f <.1.<.1.2.1.3.<.+.&.:.:.O.e.L.P.r.K.3.U.f v B.P.3.2.b $ aX9X                            ",
"                              %Xc.g v l <.3.2.2.1.2.3.2.<.e.2.,.3.:.t.L.J.:.y.e.<.e.L.2.y.1.k % |.+X                            ",
"                              *Xv f c c #.O.z @.#.2.3.2.e.3.2.e.3.2.2.<.2.<.;.1.+.<.L.j.1.1.2.t A.oX                            ",
"                            gX#Xi l x o.o.o.#.1.2.h.r.3.X.o.1.1.2.f.<.o.+.>.:.1.;.<.h.L.d.f.1...Z.0X                            ",
"                            tX|.i z X.#.<.<.e.2.3.J.r.2.@.@.k i p i z %.:.2.2.e.3.2.:.j.h.3.h.x v #XgX                          ",
"                            *XA.i c o.1.<.t.3.e.e.y.1.o.z h 0 { 5Xv.3 y x 1.2.,.e.e.1.g.L.3.h.1.k }.9X                          ",
"                            @Xv.a z 1.:.g.r.h.e.e.3.z t q q.'.#X$X&X`.x.4 h b 1.3.3.h.1.j.k.d.>.h 4X+X                          ",
"                            {.s.s X.@.e.e.1.>.>.O.k w 0.5XaXqX      OX@X5X&.y z b 1.3.1.2.k.f.O.p (.+X                          ",
"                            }.k l z 1.2.x >.s.z y ) i.}.+X            jXOXqXH.w 3 z #.1.+.2.j.@.p C.oX                          ",
"                            |.s s x 1.#.+.x y ~ 0.`.@XgX                  @X$X#XC.2 t z o...3.,.f n uX                          ",
"                            ~.i k %.%.k s j W U.[.qX                          $X*X,Xl 4 y s $.d.x g uX                          ",
"                            S.i b b s y ' N.^.wX                                  dXuX!.b 4 r s #.- {.gX                        ",
"                          zXs.a f i I =._.%X                                          uX$X~.3 < p = R.jX                        ",
"                          dXM ; 3 @.T.oXgX                                                sX$X~.p i G.pX                        ",
"                          uXv.S _.oXtX                                                        uX0X!.5XdX                        ",
"                          9X}.XXtX                                                              jXuX&XtX                        ",
"                                                                                                                                ",
"                                                                                                                                "
};
