/* XPM */
static char *result[] = {
/* columns rows colors chars-per-pixel */
"64 64 219 2 ",
"   c black",
".  c #010101",
"X  c #020202",
"o  c gray1",
"O  c #040404",
"+  c gray2",
"@  c #060606",
"#  c #070707",
"$  c gray3",
"%  c #090909",
"&  c gray4",
"*  c #0B0B0B",
"=  c #0C0C0C",
"-  c gray5",
";  c #0E0E0E",
":  c gray6",
">  c #101010",
",  c #111111",
"<  c #131313",
"1  c gray8",
"2  c #151515",
"3  c #161616",
"4  c gray9",
"5  c #181818",
"6  c #191919",
"7  c gray10",
"8  c #1B1B1B",
"9  c gray11",
"0  c #1D1D1D",
"q  c #1E1E1E",
"w  c #202020",
"e  c gray13",
"r  c #222222",
"t  c #232323",
"y  c gray14",
"u  c #252525",
"i  c gray15",
"p  c #272727",
"a  c #282828",
"s  c gray16",
"d  c #2A2A2A",
"f  c gray17",
"g  c #2C2C2C",
"h  c #2D2D2D",
"j  c #2F2F2F",
"k  c gray19",
"l  c #313131",
"z  c #323232",
"x  c gray20",
"c  c gray21",
"v  c #373737",
"b  c gray22",
"n  c #393939",
"m  c #3A3A3A",
"M  c #3C3C3C",
"N  c gray24",
"B  c #3F3F3F",
"V  c gray25",
"C  c #414141",
"Z  c gray26",
"A  c #434343",
"S  c #444444",
"D  c gray27",
"F  c #464646",
"G  c gray28",
"H  c #484848",
"J  c #494949",
"K  c gray29",
"L  c #4B4B4B",
"P  c #4C4C4C",
"I  c gray30",
"U  c #4E4E4E",
"Y  c gray31",
"T  c #505050",
"R  c #515151",
"E  c gray32",
"W  c #535353",
"Q  c gray33",
"!  c #555555",
"~  c #565656",
"^  c gray34",
"/  c #585858",
"(  c #5A5A5A",
")  c #5B5B5B",
"_  c gray36",
"`  c #5D5D5D",
"'  c gray37",
"]  c #5F5F5F",
"[  c #606060",
"{  c gray38",
"}  c gray39",
"|  c #646464",
" . c #656565",
".. c gray40",
"X. c #686868",
"o. c DimGray",
"O. c #6A6A6A",
"+. c gray42",
"@. c #6C6C6C",
"#. c #6D6D6D",
"$. c gray43",
"%. c #6F6F6F",
"&. c gray44",
"*. c #717171",
"=. c gray45",
"-. c gray46",
";. c #767676",
":. c gray47",
">. c #7B7B7B",
",. c #7C7C7C",
"<. c gray49",
"1. c #7E7E7E",
"2. c gray50",
"3. c #808080",
"4. c #818181",
"5. c gray51",
"6. c #838383",
"7. c #848484",
"8. c gray53",
"9. c #888888",
"0. c gray54",
"q. c gray55",
"w. c #8E8E8E",
"e. c gray56",
"r. c #909090",
"t. c #929292",
"y. c #939393",
"u. c #959595",
"i. c gray59",
"p. c #989898",
"a. c gray60",
"s. c gray62",
"d. c #A0A0A0",
"f. c gray63",
"g. c gray64",
"h. c #A4A4A4",
"j. c #A5A5A5",
"k. c gray65",
"l. c #A7A7A7",
"z. c gray66",
"x. c #A9A9A9",
"c. c gray67",
"v. c #ACACAC",
"b. c gray68",
"n. c #AFAFAF",
"m. c #B1B1B1",
"M. c #B2B2B2",
"N. c gray70",
"B. c #B4B4B4",
"V. c gray71",
"C. c #B7B7B7",
"Z. c gray72",
"A. c #B9B9B9",
"S. c gray73",
"D. c #BBBBBB",
"F. c #BCBCBC",
"G. c gray74",
"H. c gray",
"J. c gray75",
"K. c #C1C1C1",
"L. c gray76",
"P. c #C3C3C3",
"I. c gray77",
"U. c #C5C5C5",
"Y. c #C6C6C6",
"T. c gray78",
"R. c #C8C8C8",
"E. c gray79",
"W. c #CACACA",
"Q. c #CBCBCB",
"!. c gray80",
"~. c #CECECE",
"^. c gray81",
"/. c gray82",
"(. c #D2D2D2",
"). c LightGray",
"_. c gray83",
"`. c #D5D5D5",
"'. c gray84",
"]. c #D7D7D7",
"[. c #D8D8D8",
"{. c gray85",
"}. c #DADADA",
"|. c gray86",
" X c gainsboro",
".X c #DDDDDD",
"XX c gray87",
"oX c #DFDFDF",
"OX c gray88",
"+X c #E1E1E1",
"@X c #E2E2E2",
"#X c gray89",
"$X c #E4E4E4",
"%X c #E7E7E7",
"&X c gray91",
"*X c #E9E9E9",
"=X c #EAEAEA",
"-X c gray92",
";X c #ECECEC",
":X c gray93",
">X c #EEEEEE",
",X c #EFEFEF",
"<X c gray94",
"1X c #F1F1F1",
"2X c gray95",
"3X c #F3F3F3",
"4X c #F4F4F4",
"5X c gray96",
"6X c #F6F6F6",
"7X c gray97",
"8X c #F8F8F8",
"9X c #F9F9F9",
"0X c gray98",
"qX c #FBFBFB",
"wX c gray99",
"eX c #FDFDFD",
"rX c #FEFEFE",
"tX c white",
"yX c None",
/* pixels */
"yXyXyXyXyXyXyXyXyXyXyXyXyXyXyXyXyXyXyXyXyXyXyXyXyXyXyXyXyXyXyXyX    yXyXyXyXyXyXyXyXyXyXyXyXyXyXyXyXyXyXyXyXyXyXyXyXyXyXyXyXyXyX",
"yXyXyXyXyXyXyXyXyXyXyXyXyXyXyXyXyXyXyXyXyXyXyXyXyXq H &.r.z.V.L.E.E.P.V.f.,.P 7 yXyXyXyXyXyXyXyXyXyXyXyXyXyXyXyXyXyXyXyXyXyXyXyX",
"yXyXyXyXyXyXyXyXyXyXyXyXyXyXyXyXyXyXyXyXyXyX9 -.U.4XtXtXtXtXtXtXtXtXtXtXtXtXtX<XV._ = yXyXyXyXyXyXyXyXyXyXyXyXyXyXyXyXyXyXyXyXyX",
"yXyXyXyXyXyXyXyXyXyXyXyXyXyXyXyXyXyXyXyX% 3.:XtXtXtXtXtXtXtXtXtXtXtXtXtXtXtXtXtXtXtX|.#.$ yXyXyXyXyXyXyXyXyXyXyXyXyXyXyXyXyXyXyX",
"yXyXyXyXyXyXyXyXyXyXyXyXyXyXyXyXyXyXyXy R.tXtXtXtXtXtXtXtXtXtXtXtXtXtXtXtXtXtXtXtXtXtXtX^.A yXyXyXyXyXyXyXyXyXyXyXyXyXyXyXyXyXyX",
"yXyXyXyXyXyXyXyXyXyXyXyXyXyXyXyXyXyXf +XtXtXtXtXtXtXtXtXtXtXtXtXtXtXtXtXtXtXtXtXtXtXtXtXtXrX7.X yXyXyXyXyXyXyXyXyXyXyXyXyXyXyXyX",
"yXyXyXyXyXyXyXyXyXyXyXyXyXyXyXyXyXt +XtXtXtXtXtXtXtXtXtXtXtXtXtXtXtXtXtXtXtXtXtXtXtXtXtXtXtXtXm.: yXyXyXyXyXyXyXyXyXyXyXyXyXyXyX",
"yXyXyXyXyXyXyXyXyXyXyXyXyXyXyXyX8 '.tXtXtXtXtXtXtXtXtXtXtXtXtXtXtXtXtXtXtXtXtXtXtXtXtXtXtXtXtXtXY.2 yXyXyXyXyXyXyXyXyXyXyXyXyXyX",
"yXyXyXyXyXyXyXyXyXyXyXyXyXyXyXw /.tXtXtXtXtXtXtXtXtXtXtXtXtXtXtXtXtXtXtXtXtXtXtXtXtXtXtXtXtXtXtXtXY.; yXyXyXyXyXyXyXyXyXyXyXyXyX",
"yXyXyXyXyXyXyXyXyXyXyXyXyXyXV +XtXtXtXtXtXtXtXtXtXtXtXtXtXtXtXtXtXtXtXtXtXtXtXtXtXtXtXtXtXtXtXtXtXtXn.. yXyXyXyXyXyXyXyXyXyXyXyX",
"yXyXyXyXyXyXyXyXyXyXyXyXyXI 7XtXtXtXtXtXtXtXtXtXtXtXtXtXtXtXtXtXtXtXtXtXtXtXtXtXtXtXtXtXtXtXtXtXtXtXtX1.yXyXyXyXyXyXyXyXyXyXyXyX",
"yXyXyXyXyXyXyXyXyXyXyXyXs 1XtXtXtXtXtXtXtXtXtXtXtXtXtXtXtXtXtXtXtXtXtXtXtXtXtXtXtXtXtXtXtXtXtXtXtXtXtXwXb yXyXyXyXyXyXyXyXyXyXyX",
"yXyXyXyXyXyXyXyXyXyXyXyXZ.tXtXtXtXtXtXtXtXtXtXtXtXtXtXtXtXtXtXtXtXtXtXtXtXtXtXtXtXtXtXtXtXtXtXtXtXtXtXtXR.o yXyXyXyXyXyXyXyXyXyX",
"yXyXyXyXyXyXyXyXyXyXyXb tXtXtXtXtXtXtXtXtXtXtXtXtXtXtXtXtXtXtXtXtXtXtXtXtXtXtXtXtXtXtXtXtXtXtXtXtXtXtXtXtX! yXyXyXyXyXyXyXyXyXyX",
"yXyXyXyXyXyXyXyXyXyXyXw.tXtXtXtXtXtXtXtXtXtXtXtXtXtXtXtXtXtXtXtXtXtXtXtXtXtXtXtXtXtXtXtXtXtXtXtXtXtXtXtXtXL.yXyXyXyXyXyXyXyXyXyX",
"yXyXyXyXyXyXyXyXyXyXyXW.tXtXtXtXtXtXtXtXtXtXtXtXtXtXtXtXtXtXtXtXtXtXtXtXtXtXtXtXtXtXtXtXtXtXtXtXtXtXtXtXtXrXN yXyXyXyXyXyXyXyXyX",
"yXyXyXyXyXyXyXyXyXyX< :XtXtXtXtXtXtXtXtXtXtXtXtXtXtXtXtXtXtXtXtXtXtXtXtXtXtXtXtXtXtXtXtXtXtXtXtXtXtXtXtXtXtXp.yXyXyXyXyXyXyXyXyX",
"yXyXyXyXyXyXyXyXyXyXh rXtXtXtXtXtXtXtXtXtXtXtXtXtXtXtXtXtXtXtXtXtXtXtXtXtXtXtXtXtXtXtXtXtXtXtXtXtXtXtXtXtXtX^.yXyXyXyXyXyXyXyXyX",
"yXyXyXyXyXyXyXyXyXyXA tXtXtXtXtXtXtXtXtXtXtXtXtXtXtXtXtXtXtXtXtXtXtXtXtXtXtXtXtXtXtXtXtXtXtXtXtXtXtXtXtXtXtX*X: yXyXyXyXyXyXyXyX",
"yXyXyXyXyXyXyXyXyXyXI tXtXtXtXtXtXtXtXtXtXtXtXtXtXtXtXtXtXtXtXtXtXtXtXtXtXtXtXtXtXtXtXtXtXtXtXtXtXtXtXtXtXtX2X6 yXyXyXyXyXyXyXyX",
"yXyXyXyXyXyXyXyXyXyXR tXtXtXtXtXtXtXtXtXtXtXtXtXtXtXtXtXtXtXtXtXtXtXtXtXtXtXtXtXtXtXtXtXtXtXtXtXtXtXtXtXtXtX4X9 yXyXyXyXyXyXyXyX",
"yXyXyXyXyXyXyXyXyXyXY tXtXtXOX8XtXtXtXtXtXtXtXtXtXtXtXtXtXtXtXtXtXtXtXtXtXtXtXtXtXtXtXtXtXtXtXtXtXtXtXwXtXtX>X1 yXyXyXyXyXyXyXyX",
"yXyXyXyXyXyXyXyXyXyXJ tXtX-X4 s q.-XtXtXtXtXtXtXtXtXtXtXtXtXtXtXtXtXtXtXtXtXtXtXtXtXtXtXtXtXtXtX_.8.S l *XtX@X& yXyXyXyXyXyXyXyX",
"yXyXyXyXyXyXyXyXyXyXn tXtX^.    yX9 0.4XtXtXtXtXtXtXtXtXtXtXtXtXtXtXtXtXtXtXtXtXtXtXtXtXtXtXH.P + yX    !.tX!.yXyXyXyXyXyXyXyXyX",
"yXyXyXyXyXyXyXyXyXyXi qXtX~.  yXyXyXyXd l.tXtXtXtXtXtXtXtXtXtXtXtXtXtXtXtXtXtXtXtXtXtXtX*X{   yXyXyXyX. (.tXc.yXyXyXyXyXyXyXyXyX",
"yXyXyXyXyXyXyXyXyXyX, =XtXOX# yXyXyXyXyXyXY [.tXtXtXtXtXtXtXtXtXtXtXtXtXtXtXtXtXtXtXtXC.r yXyXyXyXyXyX; &XtX4.yXyXyXyXyXyXyXyXyX",
"yXyXyXyXyXyXyXyXyXyX. /.tX0Xa yXyXyXyXyXyXyX> t.tXtXtXtXtXtXtXtXtXtXtXtXtXtXtXtXtX9X:.. yXyXyXyXyXyXyXk eXtXR yXyXyXyXyXyXyXyXyX",
"yXyXyXyXyXyXyXyXyXyXyXc.tXtX;.yXyXyXyXyXyXyXyXyXD !.tXtXtXtXtXtXtXtXtXtXtXtXtXtXY.n yXyXyXyXyXyXyXyXyX2.tX0Xy yXyXyXyXyXyXyXyXyX",
"yXyXyXyXyXyXyXyXyXyXyX,.tXtXC.  yXyXyXyXyXyXyXyXyX@ ] Q.tXtXtXtXtXtXtXtXtXtXR.( X yXyXyXyXyXyXyXyXyX. `.tX{.+ yXyXyXyXyXyXyXyXyX",
"yXyXyXyXyXyXyXyXyXyXyXH tXtX9XB yXyXyXyXyXyXyXyXyXyXyXX L M.qXtXtXtXtXqXM.K . yXyXyXyXyXyXyXyXyXyXyX! tXtXj.yXyXyXyXyXyXyXyXyXyX",
"yXyXyXyXyXyXyXyXyXyXyX* [.tXtX%XG   yXyXyXyXyXyXyXyXyXyX    t P.tXtXA.r     yXyXyXyXyXyXyXyXyXyX  H =XtXtXo.yXyXyXyXyXyXyXyXyXyX",
"yXyXyXyXyXyXyXyXyXyXyXyXT tXtXtXtXc.) u O yXyXyXyXyXyXyX  s 2.,X4XtX%X>.a   yXyXyXyXyXyXyX% g | M.tXtXtXrXl yXyXyXyXyXyXyXyXyXyX",
"yXyXyXyXyXyXyXyXyXyXyXyXyXc.tXtXtXtXtX9X].n.8.| J A ^ 5.P.9XtXXX9.v.2XtX9XK.<.L Z P O.e.Z.oXeXtXtXtXtXtX@X& yXyXyXyXyXyXyXyXyXyX",
"yXyXyXyXyXyXyXyXyXyXyXyXyX5 @XtXtXtXtXtXtXtXtXtXtXtXtXtXtXtXeXg ) D J tXtXtXtXtXtXtXtXtXtXtXtXtXtXtXtXtXm.yXyXyXyXyXyXyXyXyXyXyX",
"yXyXyXyXyXyXyXyXyXyXyXyXyX  M 7XtXtXtXtXtXtXtXtXtXtXtXtXtXtX^.  o.!   #XtXtXtXtXtXtXtXtXtXtXtXtXtXtXtXtXt.yXyXyXyXyXyXyXyXyXyXyX",
"yXyXyXyXyXyXyXyXyXyXyXyXyX{ I.wXtXtXtXtXtXtXtXtXtXtXtXtXtXtX .  ..Q   4.tXtXtXtXtXtXtXtXtXtXtXtXtXtXtXtX` yXyXyXyXyXyXyXyXyXyXyX",
"yXyXyXyXyXyXyXyXyXyXyXyXyX$XtXtXtXtXtXtXtXtXtXtXtXtXtXtXtXg.    h.0.  @ D.tXtXtXtXtXtXtXtXtXtXtXtXtXtXtXD.- yXyXyXyXyXyXyXyXyXyX",
"yXyXyXyXyXyXyXyXyXyXyXyXyXm.tXtXtXtXtXtXtXtXtXtXtXtXtXtXtX2.  m tX4Xi   y.tXtXtXtXtXtXtXtXtXtXtXtXtXtXtXtXu yXyXyXyXyXyXyXyXyXyX",
"yXyXyXyXyXyXyXyXyXyXyXyX- H.tXtXtXtXtXtXtX<Xi.Y J .XtXtXtX XO d.tXtX8.@ $XtXtXtXtXtX0XD.@.C _ `.tXtXtXtX-XyXyXyXyXyXyXyXyXyXyXyX",
"yXyXyXyXyXyXyXyXyXyXyXyXy tXtXtXtXtXtXtXF.i     # {.tXtXtXtXq.K.tXtXg.2.tXtXtXtXtXrXI   yXyX  y 3XtXtXtXk.yXyXyXyXyXyXyXyXyXyXyX",
"yXyXyXyXyXyXyXyXyXyXyXyXyXT.tXtXtXtX0Xe.  yXyXyX3 >XtXtXtXtXtXtXtXtX<XqXtXtXtXtXtXtXT yXyXyXyX& *XtXtX/.8 yXyXyXyXyXyXyXyXyXyXyX",
"yXyXyXyXyXyXyXyXyXyXyXyXyXx 6XtXtX;X_.i u yXyXyX  N.tXtXtXtXtXtXtXtXtXtXtXtXtXtXtXtX_ yXyXyXyX8.tXtXb.1 yXyXyXyXyXyXyXyXyXyXyXyX",
"yXyXyXyXyXyXyXyXyXyXyXyXyXyX@.$XX.2 :.].>.yXyXyXi 5XtXtXtXtXtXtXtXtXtXtXrX9XtXtXtXtXm yXyXyXyXyXs. .yXyXyXyXyXyXyXyXyXyXyXyXyXyX",
"yXyXyXyXyXyXyXyXyXyXyXyXyXyXyXyXyXyXyXyXyXyXyXyX3 <XtXtX6X+XtXtX&XY.tXrXE t G.tXtX,X1 yXyXyXyXyXyXyXyXyXyXyXyXyXyXyXyXyXyXyXyXyX",
"yXyXyXyXyXyXyXyXyXyXyXyXyXyXyXyXyXyXyXyXyXyXyXyXyXS.tXtX4...tXtXx.z tXtXq ) $XtXtXZ.yXyXyXyXyXyXyXyXyXyXyXyXyXyXyXyXyXyXyXyXyXyX",
"yXyXyXyXyXyXyXyXyXyXyXyXyXyXyXyXyXyXyXyXyXyXyXyXyXO.tXtXj.@.tXtXC.A tXtXx b.tXtXtXW yXyXyXyXyXyXyXyXyXyXyXyXyXyXyXyXyXyXyXyXyXyX",
"yXyXyXyXyXyXyXyXyXyXyXyXyXyXyXyXyXyXyXyXyXyXyXyXyXM tXtXS.&.tXtXP.U tXtXC M.tXtXU.X yXyXyXyXyXyXyXyXyXyXyXyXyXyXyXyXyXyXyXyXyXyX",
"yXyXyXyXyXyXyXyXyXyXyXyXyXyXyXyXyXyXyXyXyXyXyXyXyXc tXtXJ.#.tXtXP./ tXtXF L.tXtXk.yXyXyXyXyXyXyXyXyXyXyXyXyXyXyXyXyXyXyXyXyXyXyX",
"yXyXyXyXyXyXyXyXyXyXyXyXyXyXyXyXyXyXyXyXyXyXyXyXyXj tXtXT.=.tXtXL.} tXtXH T.tXtXs.yXyXyXyXyXyXyXyXyXyXyXyXyXyXyXyXyXyXyXyXyXyXyX",
"yXyXyXyXyXyXyXyXyXyXyXyXyXyXyXyXyXyXyXyXyXyXyXyXyXa wXtX/.;.tXtXL. .tXtXQ ^.tXtXu.yXyXyXyXyXyXyXyXyXyXyXyXyXyXyXyXyXyXyXyXyXyXyX",
"yXyXyXyXyXyXyXyXyXyXyXyXyXyXyXyXyXyXyXyXyXyXyXyXyXu 0XtX(.+.tXtXL. .tXtX( }.tXtXw.yXyXyXyXyXyXyXyXyXyXyXyXyXyXyXyXyXyXyXyXyXyXyX",
"yXyXyXyXyXyXyXyXyXyXyXyXyXyXyXyXyXyXyXyXyXyXyXyXyX0 4XtX).{ tXtXK.@.tXtX~  XtXtX9.yXyXyXyXyXyXyXyXyXyXyXyXyXyXyXyXyXyXyXyXyXyXyX",
"yXyXyXyXyXyXyXyXyXyXyXyXyXyXyXyXyXyXyXyXyXyXyXyXyX< ;XtX].' tXtXK.#.tXtX( OXtXtX:.yXyXyXyXyXyXyXyXyXyXyXyXyXyXyXyXyXyXyXyXyXyXyX",
"yXyXyXyXyXyXyXyXyXyXyXyXyXyXyXyXyXyXyXyXyXyXyXyXyX> *XtX{.` tXtXL.=.tXtX[ $XtXtX%.yXyXyXyXyXyXyXyXyXyXyXyXyXyXyXyXyXyXyXyXyXyXyX",
"yXyXyXyXyXyXyXyXyXyXyXyXyXyXyXyXyXyXyXyXyXyXyXyXyX$ .XtX}.R tXtXH.;.tXrX] -XtXtX} yXyXyXyXyXyXyXyXyXyXyXyXyXyXyXyXyXyXyXyXyXyXyX",
"yXyXyXyXyXyXyXyXyXyXyXyXyXyXyXyXyXyXyXyXyXyXyXyXyX. `.tX|.F tXtXB.*.tXqX^ <XtXtXW yXyXyXyXyXyXyXyXyXyXyXyXyXyXyXyXyXyXyXyXyXyXyX",
"yXyXyXyXyXyXyXyXyXyXyXyXyXyXyXyXyXyXyXyXyXyXyXyXyXyX!.tX|.A tXtXc.$.tX9XR <XtXtXG yXyXyXyXyXyXyXyXyXyXyXyXyXyXyXyXyXyXyXyXyXyXyX",
"yXyXyXyXyXyXyXyXyXyXyXyXyXyXyXyXyXyXyXyXyXyXyXyXyXyXG.tX.Xm 0XtXl.#.tX2XF 2XtXtXv yXyXyXyXyXyXyXyXyXyXyXyXyXyXyXyXyXyXyXyXyXyXyX",
"yXyXyXyXyXyXyXyXyXyXyXyXyXyXyXyXyXyXyXyXyXyXyXyXyXyXV.tX.Xh 4XtXa.} tX*Xm 3XtXwXa yXyXyXyXyXyXyXyXyXyXyXyXyXyXyXyXyXyXyXyXyXyXyX",
"yXyXyXyXyXyXyXyXyXyXyXyXyXyXyXyXyXyXyXyXyXyXyXyXyXyXj.tX|.p 2XtX0._ tX|.h 5XtX2X6 yXyXyXyXyXyXyXyXyXyXyXyXyXyXyXyXyXyXyXyXyXyXyX",
"yXyXyXyXyXyXyXyXyXyXyXyXyXyXyXyXyXyXyXyXyXyXyXyXyXyXe.tX X8 =XtX-.^ tXY.e 8XtX@XyXyXyXyXyXyXyXyXyXyXyXyXyXyXyXyXyXyXyXyXyXyXyXyX",
"yXyXyXyXyXyXyXyXyXyXyXyXyXyXyXyXyXyXyXyXyXyXyXyXyXyXyXD.F.% 1XtX( I tXl.- tXtXI.yXyXyXyXyXyXyXyXyXyXyXyXyXyXyXyXyXyXyXyXyXyXyXyX",
"yXyXyXyXyXyXyXyXyXyXyXyXyXyXyXyXyXyXyXyXyXyXyXyXyXyXyXyXyXyX6.f.y u V.I yX%.~ yXyXyXyXyXyXyXyXyXyXyXyXyXyXyXyXyXyXyXyXyXyXyXyXyX",
"yXyXyXyXyXyXyXyXyXyXyXyXyXyXyXyXyXyXyXyXyXyXyXyXyXyXyXyXyXyXyXyXyXyXyXyXyXyXyXyXyXyXyXyXyXyXyXyXyXyXyXyXyXyXyXyXyXyXyXyXyXyXyXyX"
};
