/* XPM */
static char *_b6ad79685234e85c847604e3b970063tuPUGFrRoTnhKUii[] = {
/* columns rows colors chars-per-pixel */
"64 64 129 2 ",
"   c None",
".  c #000000",
"X  c #070900",
"o  c #090C00",
"O  c #0D1200",
"+  c #111700",
"@  c #141B00",
"#  c #1B2300",
"$  c #1E2B00",
"%  c #212D00",
"&  c #243300",
"*  c #2B3600",
"=  c #273900",
"-  c #2C3C00",
";  c #303E00",
":  c #2E4100",
">  c #324400",
",  c #354B00",
"<  c #394C00",
"1  c #375000",
"2  c #3B5200",
"3  c #3E5900",
"4  c #435600",
"5  c #435B00",
"6  c #485D00",
"7  c #456100",
"8  c #4B6300",
"9  c #4C6B00",
"0  c #536E00",
"q  c #4E7200",
"w  c #537500",
"e  c #597400",
"r  c #567A00",
"t  c #5A7D00",
"y  c #627D00",
"u  c #5E8100",
"i  c #628500",
"p  c #688200",
"a  c #668A00",
"s  c #6A8D00",
"d  c #6E9200",
"f  c #729500",
"g  c #719600",
"h  c #729600",
"j  c #739600",
"k  c #729700",
"l  c #739700",
"z  c #709500",
"x  c #749500",
"c  c #769600",
"v  c #719500",
"b  c #739800",
"n  c #749800",
"m  c #749900",
"M  c #769800",
"N  c #779900",
"B  c #759A00",
"V  c #769A00",
"C  c #779C00",
"Z  c #779E00",
"A  c #759900",
"S  c #789800",
"D  c #789C00",
"F  c #7A9C00",
"G  c #789E00",
"H  c #799E00",
"J  c #7A9F00",
"K  c #7B9F00",
"L  c #7C9E00",
"P  c #7E9E00",
"I  c #7E9F00",
"U  c #799D00",
"Y  c #7BA000",
"T  c #7EA100",
"R  c #7DA200",
"E  c #7EA300",
"W  c #7FA300",
"Q  c #7DA400",
"!  c #7FA400",
"~  c #7CA100",
"^  c #80A300",
"/  c #82A500",
"(  c #81A600",
")  c #80A700",
"_  c #81A700",
"`  c #82A600",
"'  c #82A700",
"]  c #83A700",
"[  c #81A600",
"{  c #84A900",
"}  c #85AA00",
"|  c #86AB00",
" . c #87AB00",
".. c #86AE00",
"X. c #84AA00",
"o. c #88AD00",
"O. c #89AE00",
"+. c #89AF00",
"@. c #8AAF00",
"#. c #8AB000",
"$. c #8BB000",
"%. c #8AB100",
"&. c #8BB100",
"*. c #8BB300",
"=. c #8CB100",
"-. c #8CB200",
";. c #8DB200",
":. c #8CB300",
">. c #8EB400",
",. c #8FB400",
"<. c #8EB500",
"1. c #8FB500",
"2. c #8EB600",
"3. c #8FB600",
"4. c #8AB000",
"5. c #90B500",
"6. c #91B800",
"7. c #92B800",
"8. c #92B900",
"9. c #93B900",
"0. c #92BA00",
"q. c #94BA00",
"w. c #94BC00",
"e. c #95BC00",
"r. c #96BD00",
"t. c #97BE00",
"y. c #98BF00",
"u. c #98C000",
"i. c #9AC200",
/* pixels */
"                                                                                                                                ",
"                                                                                                                                ",
"                                                                                                                                ",
"                                                                                                                                ",
"          . . .                                                                                                                 ",
"          . . . . . . .                                                                                                         ",
"        . . . . . . . . . . . .                                                                                                 ",
"          . . . . . . . . . . . . . . .                                                                                         ",
"          . . . . . . . . . . . . . . . . . . .                                                                                 ",
"            . . . . ; @ . . . . . . . . . . . . . . .                                                                           ",
"            . . . . 8 y.y * . . . . . . . . . . . .                                                                             ",
"              . . . @ 9.y.t.s > o . . . . . . . . . . . . . . . . .                                                             ",
"              . . . . p y.5.q.9./ 0 % . . . . . . . . . . . . . .                                                               ",
"              . . . . * y.5.@.5.S F  .p > o . . . . . . . . . .                                                                 ",
"              . . . . X ^ 9.5.^ 6 6 T :.=.D 8 @ . . . . . . . . . . . . . . .                                                   ",
"                . . . . 6 y.5. .0 0 |  ./ / ..T y - X . . . . . . . . . . . . . . .                                             ",
"                . . . . @ =.5.=.$.T ] ] ] ! ! T ! ! s 4 # . . . . . . . . . . . .                                               ",
"                . . . . . y 9.=.$.O.| ] ] ] ! T K Z T ! b 0 - X . . . . . . . . . . . . . . . . .                               ",
"                . . . . . ; 9.@.O.O.| | K ! ! T K K D V z b Z a > X . . . . . . . . . . . . . .                                 ",
"                  . . . . X ^ 5.O.O.| | ] ! ! Q K K D V V z z b z 2 % O . . . . . . . . . .                                     ",
"                  . . . . . 8 9.O.O...| ] ] ! ~ K Z Z V b c z d z r 4 < = @ X . . . . . . . . . . . . . . .                     ",
"                  . . . . . @ $.$...| ] ] ] ! ~ K K D V V z z z d s a s 9 < > $ O . . . . . . . . . . . .                       ",
"                  . . . . . . p 5.O...] ] ] ! T ~ Z K V b z z d d d s s i , > 2 , & @ . . . . . . . . .                         ",
"                    . . . . . - 8.O...] ] ! ! ~ K K V V V z z z d s s a s 5 4 u 9 , , - # o . . . . . . .                       ",
"                    . . . . . X c :...| ] ] ! Q ~ Z V V c z z d d s s a a u i a w > > > , : $ O . . . . . .                     ",
"                    .   . . . . < 5.| ] ] ! ! ~ ~ Z K V c z z d d s s s a i a u r < 8 9 , 7 7 : $ . . . . . . .                 ",
"                        . . . . O ] O.| ] ] ! ~ K K V V D c z z d s s a a a u u u t u w : 8 8 : % . . . . . . .                 ",
"                        . . . . . e :.] ] ! ! ~ z K D Z a s d i d s s a a a u a u u u 7 - - : : $ . . . .                       ",
"                        . . . . . % @. ./ ] ! ~ K K D K e e 8 < t s s a a i i u u u t q 5 4 3 1 $ . . . . .                     ",
"                        . . . . . . d O.] ] ! T K Z D V V z 4 , r d s a a i a u u u t t w 1 q 7 $ . . . . . .                   ",
"                        . . . . . . < =.| ] T T K K V V b V i e s d s a a a a u u u u t w 1 9 2 $ . . . . . .                   ",
"                        .   . . . . + f e S ] T ~ Z Z V b z z z d s s s a a u u u u t t r r r 3 & . . . . .                     ",
"                        .   . . . . . 4 0 c ! ~ K K D V V z d f d s s a a a u u u u t t r r w r 1 . . . . . .                   ",
"                              . . . . & O.Z T ! K K D V V z z d d s s a a u u a u u t r r r r r 1 . . . .                       ",
"                              . . . . . s / ! T K Z D V V z z z d s s s s u a u u u u u r r r r , . . . .                       ",
"                              . . . . . % f ] T K K D V V z z d d s s a a a a u u u r r r r w r , . . . . . .                   ",
"                              . . . . . X 4 f ^ K Z V V c z z z d s s a a a u u u u r r r w w r , . . . .                       ",
"                              . . . . . . * e ^ ~ Z K V V z z d d s s a a u u a u u u r u u w r , . . . .                       ",
"                              . . . . . . @ 6 D T Z V V V z z d d s a a a a a u u u u 7 1 7 r r , . . . . .                     ",
"                              .   . . . . . < s ! K K V V z z z d s s a a a a u u r 9 : : : 7 r : . . . .                       ",
"                              .   . . . . . % 8 p V K V z z z d d s s a a i i i u i 5 : : : 1 u : . . . . .                     ",
"                              .   . . . . . o 4 6 9 V V V c d f d s s a a i i i u u 8 : : - 7 r - . . . . . .                   ",
"                                  . . . . . . ; s 7 s K b z z d d s s a i a u u u u u 7 , 3 r r - . . . .                       ",
"                                  . . . . . . @ 6 4 f T V z z z d d s a a a w t u u r u r r r r = . . . .                       ",
"                                  . . . . . . . < 4 e t s b z d d s s a a u a u u u t r r r r r 1 . . . . .                     ",
"                                  . . . . . . . % 6 4 < t V z f d d s a a a a u u u u r r r r q w & . . . . .                   ",
"                                  . .   . . . . X 4 4 2 y K V d u s s s s a a i u i u u t r r w q w & . . . . .                 ",
"                                  .     . . . . . > 6 4 0 d a 8 1 r d s a u r r w 9 8 7 9 u q w w q w & . . . . .               ",
"                                        . . . . . @ - * & % # @ @ # $ @ + O o X . . . . X , t w q q 9 q & . . . . .             ",
"                                        . . . . . . . . . . . . . . . . . . . . . . . . . . = r r q q 9 w # . . . . .           ",
"                                        . . . . . . . . . . . . . . . . . . . . . . . . . . . $ w w q 7 3 = . . . . . .         ",
"                                        .     . . . . . . . . . . . . . . . . . . . . . . . . . @ 7 q 3 O O . . . . . . .       ",
"                                        .     . . . . . . . . . . . . .   . . . . .     . . . . . X @ X @ . . . . . . . . .     ",
"                                                . .     . .   . .   . .     .   . .       . . . . . . . . . . . . . . . . . .   ",
"                                                . .       .   . .   .           . .         . . . . . . . . . . . . . . . . .   ",
"                                                  .       .   .                               . . . . . . . . . . . . . . .     ",
"                                                                                                . . . . . . . . . . . . .       ",
"                                                                                                    . . . . . . . . . . .       ",
"                                                                                                      . . . . . . . . .         ",
"                                                                                                        . . . . . . .           ",
"                                                                                                          . . . . .             ",
"                                                                                                            . . .               ",
"                                                                                                                                ",
"                                                                                                                                "
};

